<mxfile host="Electron" modified="2024-07-05T16:23:08.144Z" agent="Mozilla/5.0 (Windows NT 10.0; Win64; x64) AppleWebKit/537.36 (KHTML, like Gecko) draw.io/24.6.4 Chrome/124.0.6367.207 Electron/30.0.6 Safari/537.36" etag="gf4EmRqXYk6foUp0Df2f" version="24.6.4" type="device">
  <diagram name="PÃ¡gina-1" id="LsDu3u4bDJq17SXWeaOr">
    <mxGraphModel dx="880" dy="532" grid="1" gridSize="10" guides="1" tooltips="1" connect="1" arrows="1" fold="1" page="1" pageScale="1" pageWidth="827" pageHeight="1169" math="0" shadow="0">
      <root>
        <mxCell id="0" />
        <mxCell id="1" parent="0" />
        <mxCell id="Lz73GD6M7uqh9QbwLpAi-1" value="" style="whiteSpace=wrap;html=1;shape=mxgraph.basic.document" parent="1" vertex="1">
          <mxGeometry x="270" y="130" width="70" height="90" as="geometry" />
        </mxCell>
        <mxCell id="Lz73GD6M7uqh9QbwLpAi-4" value="&lt;font face=&quot;Courier New&quot;&gt;&lt;b&gt;areas.h&lt;/b&gt;&lt;/font&gt;" style="text;html=1;align=center;verticalAlign=middle;whiteSpace=wrap;rounded=0;" parent="1" vertex="1">
          <mxGeometry x="275" y="100" width="60" height="30" as="geometry" />
        </mxCell>
        <mxCell id="Lz73GD6M7uqh9QbwLpAi-5" value="&lt;font face=&quot;Courier New&quot;&gt;&lt;b&gt;main.c&lt;/b&gt;&lt;/font&gt;" style="text;html=1;align=center;verticalAlign=middle;whiteSpace=wrap;rounded=0;" parent="1" vertex="1">
          <mxGeometry x="370" y="100" width="60" height="30" as="geometry" />
        </mxCell>
        <mxCell id="Lz73GD6M7uqh9QbwLpAi-6" value="" style="whiteSpace=wrap;html=1;shape=mxgraph.basic.document" parent="1" vertex="1">
          <mxGeometry x="370" y="130" width="70" height="90" as="geometry" />
        </mxCell>
        <mxCell id="Lz73GD6M7uqh9QbwLpAi-7" value="" style="whiteSpace=wrap;html=1;shape=mxgraph.basic.document;fillColor=#eeeeee;strokeColor=#36393d;" parent="1" vertex="1">
          <mxGeometry x="381" y="410" width="70" height="90" as="geometry" />
        </mxCell>
        <mxCell id="Lz73GD6M7uqh9QbwLpAi-8" value="&lt;font face=&quot;Courier New&quot;&gt;&lt;b&gt;main&lt;/b&gt;&lt;/font&gt;" style="text;html=1;align=center;verticalAlign=middle;whiteSpace=wrap;rounded=0;" parent="1" vertex="1">
          <mxGeometry x="376" y="380" width="75" height="30" as="geometry" />
        </mxCell>
        <mxCell id="Lz73GD6M7uqh9QbwLpAi-10" value="" style="whiteSpace=wrap;html=1;shape=mxgraph.basic.document" parent="1" vertex="1">
          <mxGeometry x="165" y="130" width="70" height="90" as="geometry" />
        </mxCell>
        <mxCell id="Lz73GD6M7uqh9QbwLpAi-11" value="&lt;font face=&quot;Courier New&quot;&gt;&lt;b&gt;mensajes.h&lt;/b&gt;&lt;/font&gt;" style="text;html=1;align=center;verticalAlign=middle;whiteSpace=wrap;rounded=0;" parent="1" vertex="1">
          <mxGeometry x="160" y="100" width="75" height="30" as="geometry" />
        </mxCell>
        <mxCell id="Lz73GD6M7uqh9QbwLpAi-20" value="&lt;font size=&quot;1&quot; face=&quot;Courier New&quot;&gt;&lt;b style=&quot;font-size: 14px;&quot;&gt;gcc -I. -Wall -c areas.c&lt;/b&gt;&lt;/font&gt;" style="text;html=1;align=center;verticalAlign=middle;whiteSpace=wrap;rounded=0;" parent="1" vertex="1">
          <mxGeometry x="534" y="555" width="210" height="30" as="geometry" />
        </mxCell>
        <mxCell id="Lz73GD6M7uqh9QbwLpAi-21" value="" style="endArrow=block;html=1;rounded=0;strokeWidth=3;endFill=1;" parent="1" edge="1">
          <mxGeometry width="50" height="50" relative="1" as="geometry">
            <mxPoint x="404" y="231" as="sourcePoint" />
            <mxPoint x="404" y="380" as="targetPoint" />
          </mxGeometry>
        </mxCell>
        <mxCell id="Z1H2_QF8buFFtJ1Y_AMF-4" value="" style="endArrow=block;html=1;rounded=0;strokeWidth=2;endFill=1;fillColor=#6a00ff;strokeColor=#3700CC;" parent="1" edge="1">
          <mxGeometry width="50" height="50" relative="1" as="geometry">
            <mxPoint x="558" y="230" as="sourcePoint" />
            <mxPoint x="420" y="380" as="targetPoint" />
          </mxGeometry>
        </mxCell>
        <mxCell id="Z1H2_QF8buFFtJ1Y_AMF-6" value="&lt;font face=&quot;Courier New&quot;&gt;&lt;span style=&quot;font-size: 14px;&quot;&gt;libapp.a&lt;/span&gt;&lt;/font&gt;" style="shape=folder;fontStyle=1;spacingTop=10;tabWidth=40;tabHeight=14;tabPosition=left;html=1;whiteSpace=wrap;fillColor=#dae8fc;strokeColor=#000000;" parent="1" vertex="1">
          <mxGeometry x="488" y="137" width="140" height="80" as="geometry" />
        </mxCell>
        <mxCell id="Z1H2_QF8buFFtJ1Y_AMF-7" value="&lt;div&gt;&lt;font face=&quot;Courier New&quot;&gt;&lt;span style=&quot;font-size: 14px;&quot;&gt;&lt;b&gt;gcc main.c&amp;nbsp;&lt;/b&gt;&lt;font style=&quot;&quot; color=&quot;#0000cc&quot;&gt;&lt;b&gt;libapp.a&lt;/b&gt;&lt;/font&gt;&lt;b&gt;&amp;nbsp;-o main&lt;/b&gt;&lt;/span&gt;&lt;/font&gt;&lt;/div&gt;" style="text;html=1;align=left;verticalAlign=middle;whiteSpace=wrap;rounded=0;" parent="1" vertex="1">
          <mxGeometry x="107" y="270" width="253" height="30" as="geometry" />
        </mxCell>
        <mxCell id="wkpg923DlJ2MD9NkzOno-1" value="" style="shape=image;html=1;verticalLabelPosition=bottom;verticalAlign=top;imageAspect=1;aspect=fixed;image=img/clipart/Gear_128x128.png" vertex="1" parent="1">
          <mxGeometry x="387" y="419" width="26.43" height="31" as="geometry" />
        </mxCell>
        <mxCell id="wkpg923DlJ2MD9NkzOno-2" value="&lt;div&gt;&lt;font face=&quot;Courier New&quot;&gt;&lt;span style=&quot;font-size: 14px;&quot;&gt;&lt;b&gt;gcc main.c -L. &lt;font color=&quot;#ff8000&quot;&gt;-&lt;/font&gt;&lt;/b&gt;&lt;b style=&quot;&quot;&gt;&lt;font color=&quot;#ff8000&quot;&gt;l&lt;/font&gt;&lt;font color=&quot;#0000cc&quot;&gt;app&lt;/font&gt;&lt;/b&gt;&lt;b&gt;&amp;nbsp;-o main&lt;/b&gt;&lt;/span&gt;&lt;/font&gt;&lt;/div&gt;" style="text;html=1;align=left;verticalAlign=middle;whiteSpace=wrap;rounded=0;" vertex="1" parent="1">
          <mxGeometry x="107" y="320" width="253" height="30" as="geometry" />
        </mxCell>
        <mxCell id="wkpg923DlJ2MD9NkzOno-3" value="&lt;div&gt;&lt;font size=&quot;1&quot; face=&quot;Courier New&quot;&gt;&lt;b style=&quot;font-size: 16px;&quot;&gt;&lt;u&gt;Forma 1:&lt;/u&gt;&lt;/b&gt;&lt;/font&gt;&lt;/div&gt;" style="text;html=1;align=left;verticalAlign=middle;whiteSpace=wrap;rounded=0;" vertex="1" parent="1">
          <mxGeometry x="87" y="250" width="90" height="30" as="geometry" />
        </mxCell>
        <mxCell id="wkpg923DlJ2MD9NkzOno-4" value="&lt;div&gt;&lt;font size=&quot;1&quot; face=&quot;Courier New&quot;&gt;&lt;b style=&quot;font-size: 16px;&quot;&gt;&lt;u&gt;Forma 2:&lt;/u&gt;&lt;/b&gt;&lt;/font&gt;&lt;/div&gt;" style="text;html=1;align=left;verticalAlign=middle;whiteSpace=wrap;rounded=0;" vertex="1" parent="1">
          <mxGeometry x="87" y="300" width="90" height="30" as="geometry" />
        </mxCell>
      </root>
    </mxGraphModel>
  </diagram>
</mxfile>
